<svg width="120" height="131" viewBox="0 0 120 131" fill="none" xmlns="http://www.w3.org/2000/svg">
<path fill-rule="evenodd" clip-rule="evenodd" d="M91.4062 6C108.75 6 120 17.25 120 34.5938V97.4062C120 114.75 108.75 126 91.4062 126H28.5938C11.25 126 0 114.75 0 97.4062V34.5938C0 17.25 11.25 6 28.5938 6H91.4062Z" fill="#081245"/>
<path d="M41.6569 97C38.6489 97 36.3449 96.232 34.7449 94.696C33.2089 93.096 32.4409 90.824 32.4409 87.88V38.44C32.4409 35.496 33.2089 33.256 34.7449 31.72C36.3449 30.12 38.6489 29.32 41.6569 29.32H65.0809C69.9449 29.32 74.0729 30.056 77.4649 31.528C80.9209 32.936 83.5449 34.952 85.3369 37.576C87.1289 40.2 88.0249 43.272 88.0249 46.792C88.0249 50.76 86.8729 54.152 84.5689 56.968C82.3289 59.784 79.2569 61.704 75.3529 62.728V61.192C79.9609 62.024 83.5129 63.88 86.0089 66.76C88.5689 69.64 89.8489 73.32 89.8489 77.8C89.8489 83.752 87.7049 88.456 83.4169 91.912C79.1929 95.304 73.4009 97 66.0409 97H41.6569ZM49.3369 84.04H63.6409C66.9049 84.04 69.2729 83.432 70.7449 82.216C72.2809 80.936 73.0489 79.048 73.0489 76.552C73.0489 74.056 72.2809 72.2 70.7449 70.984C69.2729 69.768 66.9049 69.16 63.6409 69.16H49.3369V84.04ZM49.3369 56.2H61.9129C65.1129 56.2 67.4489 55.624 68.9209 54.472C70.4569 53.32 71.2249 51.56 71.2249 49.192C71.2249 46.824 70.4569 45.096 68.9209 44.008C67.4489 42.856 65.1129 42.28 61.9129 42.28H49.3369V56.2Z" fill="#2BDE73"/>
</svg>
